<svg width="1080" height="272" viewBox="0 0 1080 272" fill="none" xmlns="http://www.w3.org/2000/svg">
<rect width="1080" height="272" fill="#F4F4F4"/>
<rect width="112" height="74" transform="translate(228 134)" fill="white" fill-opacity="0.01" style="mix-blend-mode:multiply"/>
<rect width="56" height="56" transform="translate(260 126)" fill="white" fill-opacity="0.01" style="mix-blend-mode:multiply"/>
<path d="M316 126H260V182H316V126Z" fill="white" fill-opacity="0.01" style="mix-blend-mode:multiply"/>
<path d="M268 130.5H303.5C307.918 130.5 311.5 134.082 311.5 138.5V174" stroke="#0F62FE"/>
<path d="M272 126.5H307.5C311.918 126.5 315.5 130.082 315.5 134.5V170" stroke="#0F62FE"/>
<rect x="260.5" y="134.5" width="47" height="47" rx="7.5" fill="#EDF5FF"/>
<rect x="260.5" y="134.5" width="47" height="47" rx="7.5" stroke="#0F62FE"/>
<path d="M263.515 204H259.595V203.02H260.967V195.208H259.595V194.228H263.515V195.208H262.143V203.02H263.515V204ZM270.263 204V202.824H270.207C269.773 203.72 269.087 204.168 268.093 204.168C266.287 204.168 265.153 202.698 265.153 200.388C265.153 198.078 266.287 196.608 268.093 196.608C269.087 196.608 269.829 197.042 270.207 197.952H270.263V193.64H271.383V204H270.263ZM268.401 203.16C269.423 203.16 270.263 202.628 270.263 201.69V199.002C270.263 198.204 269.423 197.616 268.401 197.616C267.141 197.616 266.357 198.484 266.357 199.772V201.004C266.357 202.292 267.141 203.16 268.401 203.16ZM276.64 204.168C274.68 204.168 273.392 202.684 273.392 200.388C273.392 198.092 274.68 196.608 276.64 196.608C278.572 196.608 279.762 198.092 279.762 200.136V200.668H274.568V201.004C274.568 202.25 275.366 203.188 276.71 203.188C277.62 203.188 278.32 202.74 278.698 201.942L279.496 202.516C279.034 203.496 277.998 204.168 276.64 204.168ZM276.64 197.546C275.422 197.546 274.568 198.47 274.568 199.73V199.828H278.558V199.674C278.558 198.4 277.788 197.546 276.64 197.546ZM282.887 204H281.767V196.776H282.887V197.952H282.943C283.293 197.14 283.909 196.608 284.987 196.608C286.471 196.608 287.409 197.616 287.409 199.366V204H286.289V199.562C286.289 198.274 285.729 197.616 284.651 197.616C283.755 197.616 282.887 198.064 282.887 198.988V204ZM292.88 204H291.48C290.71 204 290.29 203.51 290.29 202.81V197.756H289.1V196.776H289.772C290.248 196.776 290.402 196.608 290.402 196.118V194.774H291.41V196.776H292.992V197.756H291.41V203.02H292.88V204ZM295.512 195.082C295.036 195.082 294.826 194.83 294.826 194.452V194.27C294.826 193.892 295.036 193.64 295.512 193.64C295.988 193.64 296.198 193.892 296.198 194.27V194.452C296.198 194.83 295.988 195.082 295.512 195.082ZM294.952 204V196.776H296.072V204H294.952ZM299.004 204V197.756H297.828V196.776H299.004V195.32C299.004 194.326 299.522 193.64 300.586 193.64H301.678V194.62H300.124V196.776H301.678V197.756H300.124V204H299.004ZM306.15 201.69L307.9 196.776H309.006L305.772 205.68C305.45 206.548 305.156 206.8 304.092 206.8H303.518V205.82H304.652L305.198 204.28L302.496 196.776H303.616L305.352 201.69L305.688 202.866H305.758L306.15 201.69Z" fill="black"/>
<rect width="32" height="32" transform="translate(268 138)" fill="white" fill-opacity="0.01" style="mix-blend-mode:multiply"/>
<path d="M298 139.64H270C269.801 139.64 269.64 139.801 269.64 140V168C269.64 168.199 269.801 168.36 270 168.36H298C298.199 168.36 298.36 168.199 298.36 168V140C298.36 139.801 298.199 139.64 298 139.64ZM297.64 167.64H270.36V140.36H297.64V167.64ZM276 155.36C276.244 155.36 276.47 155.29 276.669 155.177L282 160.509L295.255 147.254L294.745 146.745L282 159.491L277.177 154.668C277.29 154.47 277.36 154.244 277.36 154C277.36 153.25 276.75 152.64 276 152.64C275.25 152.64 274.64 153.25 274.64 154C274.64 154.75 275.25 155.36 276 155.36ZM276 153.36C276.353 153.36 276.64 153.647 276.64 154C276.64 154.353 276.353 154.64 276 154.64C275.647 154.64 275.36 154.353 275.36 154C275.36 153.647 275.647 153.36 276 153.36Z" fill="#1E1E1E"/>
<rect width="112" height="74" transform="translate(356 134)" fill="white" fill-opacity="0.01" style="mix-blend-mode:multiply"/>
<rect width="56" height="56" transform="translate(388 126)" fill="white" fill-opacity="0.01" style="mix-blend-mode:multiply"/>
<path d="M444 126H388V182H444V126Z" fill="white" fill-opacity="0.01" style="mix-blend-mode:multiply"/>
<path d="M396 130.5H431.5C435.918 130.5 439.5 134.082 439.5 138.5V174" stroke="#0F62FE"/>
<path d="M400 126.5H435.5C439.918 126.5 443.5 130.082 443.5 134.5V170" stroke="#0F62FE"/>
<rect x="388.5" y="134.5" width="47" height="47" rx="7.5" fill="#EDF5FF"/>
<rect x="388.5" y="134.5" width="47" height="47" rx="7.5" stroke="#0F62FE"/>
<path d="M391.125 204H389.949V194.228H393.841C395.591 194.228 396.571 195.306 396.571 197.028C396.571 198.75 395.591 199.828 393.841 199.828H391.125V204ZM391.125 195.264V198.792H393.841C394.765 198.792 395.311 198.288 395.311 197.392V196.664C395.311 195.768 394.765 195.264 393.841 195.264H391.125ZM399.47 204H398.35V196.776H399.47V198.106H399.54C399.792 197.42 400.45 196.776 401.626 196.776H402.06V197.896H401.402C400.198 197.896 399.47 198.414 399.47 199.1V204ZM406.313 204.168C404.381 204.168 403.051 202.684 403.051 200.388C403.051 198.092 404.381 196.608 406.313 196.608C408.245 196.608 409.575 198.092 409.575 200.388C409.575 202.684 408.245 204.168 406.313 204.168ZM406.313 203.174C407.517 203.174 408.371 202.432 408.371 200.906V199.87C408.371 198.344 407.517 197.602 406.313 197.602C405.109 197.602 404.255 198.344 404.255 199.87V200.906C404.255 202.432 405.109 203.174 406.313 203.174ZM414.573 204H413.173C412.403 204 411.983 203.51 411.983 202.81V197.756H410.793V196.776H411.465C411.941 196.776 412.095 196.608 412.095 196.118V194.774H413.103V196.776H414.685V197.756H413.103V203.02H414.573V204ZM419.306 204.168C417.346 204.168 416.058 202.684 416.058 200.388C416.058 198.092 417.346 196.608 419.306 196.608C421.238 196.608 422.428 198.092 422.428 200.136V200.668H417.234V201.004C417.234 202.25 418.032 203.188 419.376 203.188C420.286 203.188 420.986 202.74 421.364 201.942L422.162 202.516C421.7 203.496 420.664 204.168 419.306 204.168ZM419.306 197.546C418.088 197.546 417.234 198.47 417.234 199.73V199.828H421.224V199.674C421.224 198.4 420.454 197.546 419.306 197.546ZM427.122 204.168C425.092 204.168 423.902 202.698 423.902 200.388C423.902 198.078 425.092 196.608 427.122 196.608C428.55 196.608 429.404 197.308 429.824 198.302L428.886 198.778C428.62 198.036 428.004 197.602 427.122 197.602C425.792 197.602 425.106 198.512 425.106 199.772V201.004C425.106 202.264 425.792 203.174 427.122 203.174C428.032 203.174 428.69 202.74 429.082 201.914L429.894 202.46C429.432 203.496 428.494 204.168 427.122 204.168ZM434.631 204H433.231C432.461 204 432.041 203.51 432.041 202.81V197.756H430.851V196.776H431.523C431.999 196.776 432.153 196.608 432.153 196.118V194.774H433.161V196.776H434.743V197.756H433.161V203.02H434.631V204Z" fill="black"/>
<rect width="32" height="32" transform="translate(396 142)" fill="white" fill-opacity="0.01" style="mix-blend-mode:multiply"/>
<path d="M412 173.36C404.082 173.36 397.64 166.918 397.64 159V142.64H426.36V159C426.36 166.918 419.918 173.36 412 173.36ZM412.36 165.352V172.636C419.716 172.444 425.64 166.4 425.64 159V143.36H412.36V156.689C412.936 156.847 413.36 157.375 413.36 158.001C413.36 158.627 412.935 159.154 412.36 159.313V164.631C415.855 164.444 418.64 161.542 418.64 158.001C418.64 156.227 417.95 154.56 416.696 153.306L417.206 152.797C418.596 154.187 419.361 156.035 419.361 158.001C419.36 161.938 416.252 165.163 412.36 165.352ZM398.36 143.36V159C398.36 166.4 404.285 172.444 411.64 172.636V159.312C411.064 159.154 410.64 158.626 410.64 158C410.64 157.374 411.064 156.847 411.64 156.688V151.37C408.145 151.558 405.36 154.46 405.36 158C405.36 159.772 406.051 161.44 407.305 162.695L406.795 163.205C405.406 161.813 404.64 159.965 404.64 158C404.64 154.062 407.748 150.837 411.64 150.649V143.36H398.36ZM412 157.36C411.647 157.36 411.36 157.647 411.36 158C411.36 158.353 411.647 158.64 412 158.64C412.353 158.64 412.64 158.353 412.64 158C412.64 157.647 412.353 157.36 412 157.36Z" fill="#1E1E1E"/>
<rect width="112" height="74" transform="translate(484 134)" fill="white" fill-opacity="0.01" style="mix-blend-mode:multiply"/>
<rect width="56" height="56" transform="translate(516 126)" fill="white" fill-opacity="0.01" style="mix-blend-mode:multiply"/>
<path d="M572 126H516V182H572V126Z" fill="white" fill-opacity="0.01" style="mix-blend-mode:multiply"/>
<path d="M524 130.5H559.5C563.918 130.5 567.5 134.082 567.5 138.5V174" stroke="#0F62FE"/>
<path d="M528 126.5H563.5C567.918 126.5 571.5 130.082 571.5 134.5V170" stroke="#0F62FE"/>
<rect x="516.5" y="134.5" width="47" height="47" rx="7.5" fill="#EDF5FF"/>
<rect x="516.5" y="134.5" width="47" height="47" rx="7.5" stroke="#0F62FE"/>
<path d="M520.121 204V194.228H523.397C525.833 194.228 527.401 195.852 527.401 199.114C527.401 202.376 525.833 204 523.397 204H520.121ZM521.297 202.964H523.397C525.007 202.964 526.141 201.844 526.141 199.912V198.316C526.141 196.384 525.007 195.264 523.397 195.264H521.297V202.964ZM532.277 204.168C530.317 204.168 529.029 202.684 529.029 200.388C529.029 198.092 530.317 196.608 532.277 196.608C534.209 196.608 535.399 198.092 535.399 200.136V200.668H530.205V201.004C530.205 202.25 531.003 203.188 532.347 203.188C533.257 203.188 533.957 202.74 534.335 201.942L535.133 202.516C534.671 203.496 533.635 204.168 532.277 204.168ZM532.277 197.546C531.059 197.546 530.205 198.47 530.205 199.73V199.828H534.195V199.674C534.195 198.4 533.425 197.546 532.277 197.546ZM540.401 204H539.001C538.231 204 537.811 203.51 537.811 202.81V197.756H536.621V196.776H537.293C537.769 196.776 537.923 196.608 537.923 196.118V194.774H538.931V196.776H540.513V197.756H538.931V203.02H540.401V204ZM545.134 204.168C543.174 204.168 541.886 202.684 541.886 200.388C541.886 198.092 543.174 196.608 545.134 196.608C547.066 196.608 548.256 198.092 548.256 200.136V200.668H543.062V201.004C543.062 202.25 543.86 203.188 545.204 203.188C546.114 203.188 546.814 202.74 547.192 201.942L547.99 202.516C547.528 203.496 546.492 204.168 545.134 204.168ZM545.134 197.546C543.916 197.546 543.062 198.47 543.062 199.73V199.828H547.052V199.674C547.052 198.4 546.282 197.546 545.134 197.546ZM552.95 204.168C550.92 204.168 549.73 202.698 549.73 200.388C549.73 198.078 550.92 196.608 552.95 196.608C554.378 196.608 555.232 197.308 555.652 198.302L554.714 198.778C554.448 198.036 553.832 197.602 552.95 197.602C551.62 197.602 550.934 198.512 550.934 199.772V201.004C550.934 202.264 551.62 203.174 552.95 203.174C553.86 203.174 554.518 202.74 554.91 201.914L555.722 202.46C555.26 203.496 554.322 204.168 552.95 204.168ZM560.459 204H559.059C558.289 204 557.869 203.51 557.869 202.81V197.756H556.679V196.776H557.351C557.827 196.776 557.981 196.608 557.981 196.118V194.774H558.989V196.776H560.571V197.756H558.989V203.02H560.459V204Z" fill="black"/>
<rect width="32" height="32" transform="translate(524 142)" fill="white" fill-opacity="0.01" style="mix-blend-mode:multiply"/>
<path fill-rule="evenodd" clip-rule="evenodd" d="M533 145.5C532.724 145.5 532.5 145.724 532.5 146C532.5 146.276 532.724 146.5 533 146.5C533.276 146.5 533.5 146.276 533.5 146C533.5 145.724 533.276 145.5 533 145.5ZM529 145.5C528.724 145.5 528.5 145.724 528.5 146C528.5 146.276 528.724 146.5 529 146.5C529.276 146.5 529.5 146.276 529.5 146C529.5 145.724 529.276 145.5 529 145.5ZM531 148.5C530.724 148.5 530.5 148.724 530.5 149C530.5 149.276 530.724 149.5 531 149.5C531.276 149.5 531.5 149.276 531.5 149C531.5 148.724 531.276 148.5 531 148.5ZM526 146.5C525.724 146.5 525.5 146.724 525.5 147C525.5 147.276 525.724 147.5 526 147.5C526.276 147.5 526.5 147.276 526.5 147C526.5 146.724 526.276 146.5 526 146.5ZM528 150.5C527.724 150.5 527.5 150.724 527.5 151C527.5 151.276 527.724 151.5 528 151.5C528.276 151.5 528.5 151.276 528.5 151C528.5 150.724 528.276 150.5 528 150.5ZM526 151.5C525.724 151.5 525.5 151.724 525.5 152C525.5 152.276 525.724 152.5 526 152.5C526.276 152.5 526.5 152.276 526.5 152C526.5 151.724 526.276 151.5 526 151.5ZM529 152.5C528.724 152.5 528.5 152.724 528.5 153C528.5 153.276 528.724 153.5 529 153.5C529.276 153.5 529.5 153.276 529.5 153C529.5 152.724 529.276 152.5 529 152.5ZM527 153.5C526.724 153.5 526.5 153.724 526.5 154C526.5 154.276 526.724 154.5 527 154.5C527.276 154.5 527.5 154.276 527.5 154C527.5 153.724 527.276 153.5 527 153.5ZM530 154.5C529.724 154.5 529.5 154.724 529.5 155C529.5 155.276 529.724 155.5 530 155.5C530.276 155.5 530.5 155.276 530.5 155C530.5 154.724 530.276 154.5 530 154.5ZM525.5 155.5C525.224 155.5 525 155.724 525 156C525 156.276 525.224 156.5 525.5 156.5C525.776 156.5 526 156.276 526 156C526 155.724 525.776 155.5 525.5 155.5ZM528 156.5C527.724 156.5 527.5 156.724 527.5 157C527.5 157.276 527.724 157.5 528 157.5C528.276 157.5 528.5 157.276 528.5 157C528.5 156.724 528.276 156.5 528 156.5ZM526.5 157.5C526.224 157.5 526 157.724 526 158C526 158.276 526.224 158.5 526.5 158.5C526.776 158.5 527 158.276 527 158C527 157.724 526.776 157.5 526.5 157.5ZM528 159.5C527.724 159.5 527.5 159.724 527.5 160C527.5 160.276 527.724 160.5 528 160.5C528.276 160.5 528.5 160.276 528.5 160C528.5 159.724 528.276 159.5 528 159.5ZM531 159.5C530.724 159.5 530.5 159.724 530.5 160C530.5 160.276 530.724 160.5 531 160.5C531.276 160.5 531.5 160.276 531.5 160C531.5 159.724 531.276 159.5 531 159.5ZM531 162.5C530.724 162.5 530.5 162.724 530.5 163C530.5 163.276 530.724 163.5 531 163.5C531.276 163.5 531.5 163.276 531.5 163C531.5 162.724 531.276 162.5 531 162.5ZM527 162.5C526.724 162.5 526.5 162.724 526.5 163C526.5 163.276 526.724 163.5 527 163.5C527.276 163.5 527.5 163.276 527.5 163C527.5 162.724 527.276 162.5 527 162.5ZM530 164.5C529.724 164.5 529.5 164.724 529.5 165C529.5 165.276 529.724 165.5 530 165.5C530.276 165.5 530.5 165.276 530.5 165C530.5 164.724 530.276 164.5 530 164.5ZM528 165.5C527.724 165.5 527.5 165.724 527.5 166C527.5 166.276 527.724 166.5 528 166.5C528.276 166.5 528.5 166.276 528.5 166C528.5 165.724 528.276 165.5 528 165.5ZM535 165.5C534.724 165.5 534.5 165.724 534.5 166C534.5 166.276 534.724 166.5 535 166.5C535.276 166.5 535.5 166.276 535.5 166C535.5 165.724 535.276 165.5 535 165.5ZM532 167.5C531.724 167.5 531.5 167.724 531.5 168C531.5 168.276 531.724 168.5 532 168.5C532.276 168.5 532.5 168.276 532.5 168C532.5 167.724 532.276 167.5 532 167.5ZM529 168.5C528.724 168.5 528.5 168.724 528.5 169C528.5 169.276 528.724 169.5 529 169.5C529.276 169.5 529.5 169.276 529.5 169C529.5 168.724 529.276 168.5 529 168.5ZM528 170.5C527.724 170.5 527.5 170.724 527.5 171C527.5 171.276 527.724 171.5 528 171.5C528.276 171.5 528.5 171.276 528.5 171C528.5 170.724 528.276 170.5 528 170.5ZM536 169.5C535.724 169.5 535.5 169.724 535.5 170C535.5 170.276 535.724 170.5 536 170.5C536.276 170.5 536.5 170.276 536.5 170C536.5 169.724 536.276 169.5 536 169.5ZM538 172C537.724 172 537.5 172.224 537.5 172.5C537.5 172.776 537.724 173 538 173C538.276 173 538.5 172.776 538.5 172.5C538.5 172.224 538.276 172 538 172ZM543 168.5C542.724 168.5 542.5 168.724 542.5 169C542.5 169.276 542.724 169.5 543 169.5C543.276 169.5 543.5 169.276 543.5 169C543.5 168.724 543.276 168.5 543 168.5ZM543.5 142.64C536.96 142.64 531.64 147.96 531.64 154.5C531.64 161.04 536.96 166.36 543.5 166.36C550.04 166.36 555.36 161.04 555.36 154.5C555.36 147.96 550.04 142.64 543.5 142.64ZM543.5 165.64C537.357 165.64 532.36 160.643 532.36 154.5C532.36 148.357 537.357 143.36 543.5 143.36C549.643 143.36 554.64 148.357 554.64 154.5C554.64 160.643 549.643 165.64 543.5 165.64ZM539.254 157.254L538.009 158.5L539.254 159.745L538.745 160.255L537.5 159.009L536.254 160.255L535.745 159.745L536.99 158.5L535.745 157.254L536.254 156.745L537.5 157.99L538.746 156.745L539.254 157.254ZM550.255 155.254L549.009 156.5L550.255 157.746L549.745 158.255L548.5 157.009L547.255 158.254L546.745 157.745L547.991 156.499L546.745 155.253L547.255 154.744L548.5 155.989L549.745 154.744L550.255 155.254ZM544.255 148.254L543.009 149.5L544.255 150.746L543.745 151.255L542.5 150.009L541.255 151.254L540.746 150.745L541.991 149.5L540.746 148.254L541.255 147.745L542.5 148.991L543.745 147.746L544.255 148.254Z" fill="#1E1E1E"/>
<rect width="112" height="74" transform="translate(612 134)" fill="white" fill-opacity="0.01" style="mix-blend-mode:multiply"/>
<rect width="56" height="56" transform="translate(644 126)" fill="white" fill-opacity="0.01" style="mix-blend-mode:multiply"/>
<path d="M700 126H644V182H700V126Z" fill="white" fill-opacity="0.01" style="mix-blend-mode:multiply"/>
<path d="M652 130.5H687.5C691.918 130.5 695.5 134.082 695.5 138.5V174" stroke="#0F62FE"/>
<path d="M656 126.5H691.5C695.918 126.5 699.5 130.082 699.5 134.5V170" stroke="#0F62FE"/>
<rect x="644.5" y="134.5" width="47" height="47" rx="7.5" fill="#EDF5FF"/>
<rect x="644.5" y="134.5" width="47" height="47" rx="7.5" stroke="#0F62FE"/>
<path d="M642.353 199.8V204H641.177V194.228H645.069C646.777 194.228 647.799 195.222 647.799 197C647.799 198.428 647.113 199.394 645.839 199.688L648.079 204H646.749L644.635 199.8H642.353ZM642.353 198.792H645.069C645.993 198.792 646.539 198.288 646.539 197.392V196.664C646.539 195.768 645.993 195.264 645.069 195.264H642.353V198.792ZM652.691 204.168C650.731 204.168 649.443 202.684 649.443 200.388C649.443 198.092 650.731 196.608 652.691 196.608C654.623 196.608 655.813 198.092 655.813 200.136V200.668H650.619V201.004C650.619 202.25 651.417 203.188 652.761 203.188C653.671 203.188 654.371 202.74 654.749 201.942L655.547 202.516C655.085 203.496 654.049 204.168 652.691 204.168ZM652.691 197.546C651.473 197.546 650.619 198.47 650.619 199.73V199.828H654.609V199.674C654.609 198.4 653.839 197.546 652.691 197.546ZM659.989 204.168C658.659 204.168 657.777 203.608 657.133 202.754L657.931 202.11C658.491 202.81 659.163 203.216 660.073 203.216C661.025 203.216 661.585 202.782 661.585 202.04C661.585 201.48 661.277 201.046 660.325 200.906L659.751 200.822C658.421 200.626 657.427 200.08 657.427 198.736C657.427 197.308 658.533 196.608 660.003 196.608C661.165 196.608 661.935 197.042 662.523 197.77L661.781 198.442C661.459 197.994 660.843 197.56 659.919 197.56C658.995 197.56 658.505 197.994 658.505 198.68C658.505 199.38 658.995 199.66 659.891 199.8L660.451 199.884C662.047 200.122 662.663 200.822 662.663 201.914C662.663 203.314 661.641 204.168 659.989 204.168ZM664.801 206.8V196.776H665.921V197.952H665.977C666.355 197.042 667.097 196.608 668.091 196.608C669.897 196.608 671.031 198.078 671.031 200.388C671.031 202.698 669.897 204.168 668.091 204.168C667.097 204.168 666.411 203.72 665.977 202.824H665.921V206.8H664.801ZM667.783 203.16C669.043 203.16 669.827 202.292 669.827 201.004V199.772C669.827 198.484 669.043 197.616 667.783 197.616C666.761 197.616 665.921 198.204 665.921 199.002V201.69C665.921 202.628 666.761 203.16 667.783 203.16ZM675.812 204.168C673.88 204.168 672.55 202.684 672.55 200.388C672.55 198.092 673.88 196.608 675.812 196.608C677.744 196.608 679.074 198.092 679.074 200.388C679.074 202.684 677.744 204.168 675.812 204.168ZM675.812 203.174C677.016 203.174 677.87 202.432 677.87 200.906V199.87C677.87 198.344 677.016 197.602 675.812 197.602C674.608 197.602 673.754 198.344 673.754 199.87V200.906C673.754 202.432 674.608 203.174 675.812 203.174ZM682.196 204H681.076V196.776H682.196V197.952H682.252C682.602 197.14 683.218 196.608 684.296 196.608C685.78 196.608 686.718 197.616 686.718 199.366V204H685.598V199.562C685.598 198.274 685.038 197.616 683.96 197.616C683.064 197.616 682.196 198.064 682.196 198.988V204ZM693.813 204V202.824H693.757C693.323 203.72 692.637 204.168 691.643 204.168C689.837 204.168 688.703 202.698 688.703 200.388C688.703 198.078 689.837 196.608 691.643 196.608C692.637 196.608 693.379 197.042 693.757 197.952H693.813V193.64H694.933V204H693.813ZM691.951 203.16C692.973 203.16 693.813 202.628 693.813 201.69V199.002C693.813 198.204 692.973 197.616 691.951 197.616C690.691 197.616 689.907 198.484 689.907 199.772V201.004C689.907 202.292 690.691 203.16 691.951 203.16Z" fill="black"/>
<rect width="32" height="32" transform="translate(652 142)" fill="white" fill-opacity="0.01" style="mix-blend-mode:multiply"/>
<path d="M668 171.36C660.917 171.36 655.103 165.818 654.667 158.842L653.255 160.254L652.746 159.744L655 157.491L657.254 159.745L656.745 160.255L655.391 158.901C655.855 165.452 661.333 170.64 668 170.64C673.891 170.64 678.949 166.642 680.302 160.917L681.003 161.083C679.573 167.134 674.227 171.36 668 171.36ZM681 158.509L678.745 156.254L679.255 155.745L680.609 157.099C680.145 150.548 674.667 145.36 668 145.36C662.111 145.36 657.054 149.358 655.702 155.083L655 154.917C656.43 148.866 661.776 144.64 668 144.64C675.083 144.64 680.897 150.182 681.334 157.157L682.745 155.745L683.255 156.254L681 158.509ZM669 166.36H667V165.64H669V166.36ZM670 164.36H666V163.64H670V164.36ZM670 162.36H666C665.801 162.36 665.64 162.199 665.64 162V161.731C665.64 160.649 665.152 159.623 664.148 158.594C662.853 157.266 662.14 155.777 662.14 154.4C662.14 151.277 664.824 148.64 668 148.64C671.177 148.64 673.86 151.278 673.86 154.4C673.86 155.777 673.146 157.266 671.851 158.594C670.847 159.623 670.36 160.649 670.36 161.731V162C670.36 162.199 670.199 162.36 670 162.36ZM666.359 161.64H669.641C669.667 160.396 670.222 159.234 671.336 158.092C672.01 157.402 673.14 156.004 673.14 154.401C673.14 151.669 670.786 149.36 668 149.36C665.214 149.36 662.86 151.669 662.86 154.401C662.86 156.003 663.99 157.401 664.664 158.092C665.778 159.233 666.333 160.396 666.359 161.64Z" fill="#1E1E1E"/>
<rect width="112" height="74" transform="translate(740 134)" fill="white" fill-opacity="0.01" style="mix-blend-mode:multiply"/>
<rect width="56" height="56" transform="translate(772 126)" fill="white" fill-opacity="0.01" style="mix-blend-mode:multiply"/>
<path d="M828 126H772V182H828V126Z" fill="white" fill-opacity="0.01" style="mix-blend-mode:multiply"/>
<path d="M780 130.5H815.5C819.918 130.5 823.5 134.082 823.5 138.5V174" stroke="#0F62FE"/>
<path d="M784 126.5H819.5C823.918 126.5 827.5 130.082 827.5 134.5V170" stroke="#0F62FE"/>
<rect x="772.5" y="134.5" width="47" height="47" rx="7.5" fill="#EDF5FF"/>
<rect x="772.5" y="134.5" width="47" height="47" rx="7.5" stroke="#0F62FE"/>
<path d="M780 134H812C816.418 134 820 137.582 820 142V174C820 178.418 816.418 182 812 182H780C775.582 182 772 178.418 772 174V142C772 137.582 775.582 134 780 134Z" fill="white"/>
<path d="M780 134H812C816.418 134 820 137.582 820 142V174C820 178.418 816.418 182 812 182H780C775.582 182 772 178.418 772 174V142C772 137.582 775.582 134 780 134Z" fill="#EDF5FF"/>
<path d="M812 134.5H780C775.858 134.5 772.5 137.858 772.5 142V174C772.5 178.142 775.858 181.5 780 181.5H812C816.142 181.5 819.5 178.142 819.5 174V142C819.5 137.858 816.142 134.5 812 134.5Z" stroke="#0F62FE"/>
<path d="M772.637 199.8V204H771.461V194.228H775.353C777.061 194.228 778.083 195.222 778.083 197C778.083 198.428 777.397 199.394 776.123 199.688L778.363 204H777.033L774.919 199.8H772.637ZM772.637 198.792H775.353C776.277 198.792 776.823 198.288 776.823 197.392V196.664C776.823 195.768 776.277 195.264 775.353 195.264H772.637V198.792ZM782.975 204.168C781.015 204.168 779.727 202.684 779.727 200.388C779.727 198.092 781.015 196.608 782.975 196.608C784.907 196.608 786.097 198.092 786.097 200.136V200.668H780.903V201.004C780.903 202.25 781.701 203.188 783.045 203.188C783.955 203.188 784.655 202.74 785.033 201.942L785.831 202.516C785.369 203.496 784.333 204.168 782.975 204.168ZM782.975 197.546C781.757 197.546 780.903 198.47 780.903 199.73V199.828H784.893V199.674C784.893 198.4 784.123 197.546 782.975 197.546ZM790.79 204.168C788.76 204.168 787.57 202.698 787.57 200.388C787.57 198.078 788.76 196.608 790.79 196.608C792.218 196.608 793.072 197.308 793.492 198.302L792.554 198.778C792.288 198.036 791.672 197.602 790.79 197.602C789.46 197.602 788.774 198.512 788.774 199.772V201.004C788.774 202.264 789.46 203.174 790.79 203.174C791.7 203.174 792.358 202.74 792.75 201.914L793.562 202.46C793.1 203.496 792.162 204.168 790.79 204.168ZM797.951 204.168C796.019 204.168 794.689 202.684 794.689 200.388C794.689 198.092 796.019 196.608 797.951 196.608C799.883 196.608 801.213 198.092 801.213 200.388C801.213 202.684 799.883 204.168 797.951 204.168ZM797.951 203.174C799.155 203.174 800.009 202.432 800.009 200.906V199.87C800.009 198.344 799.155 197.602 797.951 197.602C796.747 197.602 795.893 198.344 795.893 199.87V200.906C795.893 202.432 796.747 203.174 797.951 203.174ZM806.004 204H804.702L802.168 196.776H803.288L804.548 200.36L805.332 202.824H805.402L806.186 200.36L807.474 196.776H808.552L806.004 204ZM812.763 204.168C810.803 204.168 809.515 202.684 809.515 200.388C809.515 198.092 810.803 196.608 812.763 196.608C814.695 196.608 815.885 198.092 815.885 200.136V200.668H810.691V201.004C810.691 202.25 811.489 203.188 812.833 203.188C813.743 203.188 814.443 202.74 814.821 201.942L815.619 202.516C815.157 203.496 814.121 204.168 812.763 204.168ZM812.763 197.546C811.545 197.546 810.691 198.47 810.691 199.73V199.828H814.681V199.674C814.681 198.4 813.911 197.546 812.763 197.546ZM819.011 204H817.891V196.776H819.011V198.106H819.081C819.333 197.42 819.991 196.776 821.167 196.776H821.601V197.896H820.943C819.739 197.896 819.011 198.414 819.011 199.1V204Z" fill="black"/>
<g clip-path="url(#clip0_1_9)">
<rect width="32" height="32" transform="translate(780 142)" fill="white" fill-opacity="0.01" style="mix-blend-mode:multiply"/>
<path d="M811 152.64H804.881C804.011 151.193 802.799 149.985 801.36 149.119V143C801.36 142.801 801.199 142.64 801 142.64H791C790.801 142.64 790.64 142.801 790.64 143V149.137C789.209 150.005 788.005 151.209 787.137 152.64H781C780.801 152.64 780.64 152.801 780.64 153V163C780.64 163.199 780.801 163.36 781 163.36H790.64V173C790.64 173.199 790.801 173.36 791 173.36H801C801.199 173.36 801.36 173.199 801.36 173V166.864C802.791 165.996 803.996 164.791 804.864 163.36H811C811.199 163.36 811.36 163.199 811.36 163V153C811.36 152.801 811.199 152.64 811 152.64ZM790.64 162.64H781.36V153.36H786.738C786.036 154.756 785.64 156.333 785.64 158V158.131L784.254 156.746L783.745 157.255L786 159.509L788.254 157.255L787.745 156.746L786.36 158.131V158C786.36 156.319 786.793 154.737 787.552 153.36H790.64V162.64ZM790.64 152.64H787.991C788.693 151.594 789.594 150.693 790.64 149.991V152.64ZM800.64 166.45C799.62 167.012 798.488 167.395 797.286 167.555C797.101 167.023 796.594 166.64 796 166.64C795.25 166.64 794.64 167.25 794.64 168C794.64 168.75 795.25 169.36 796 169.36C796.656 169.36 797.204 168.893 797.332 168.275C798.507 168.124 799.621 167.775 800.64 167.263V172.639H791.36V163.36H800.64V166.45ZM796.64 168C796.64 168.353 796.353 168.64 796 168.64C795.647 168.64 795.36 168.353 795.36 168C795.36 167.647 795.647 167.36 796 167.36C796.353 167.36 796.64 167.647 796.64 168ZM800.64 162.64H791.36V153.36H800.64V162.64ZM800.64 152.64H791.36V149.552C792.737 148.792 794.319 148.36 796 148.36C797.68 148.36 799.262 148.785 800.64 149.538V152.64ZM800.64 148.725C799.242 148.029 797.666 147.64 796 147.64C794.333 147.64 792.756 148.036 791.36 148.738V143.36H800.64V148.725ZM801.36 149.973C802.415 150.675 803.322 151.581 804.028 152.64H801.36V149.973ZM801.36 166.011V163.361H804.01C803.309 164.406 802.406 165.309 801.36 166.011ZM804.449 162.64H801.36V153.36H804.463C805.018 154.376 805.396 155.506 805.556 156.714C805.023 156.899 804.64 157.406 804.64 158C804.64 158.594 805.023 159.101 805.555 159.285C805.395 160.487 805.012 161.62 804.449 162.64ZM806 157.36C806.353 157.36 806.64 157.647 806.64 158C806.64 158.353 806.353 158.64 806 158.64C805.647 158.64 805.36 158.353 805.36 158C805.36 157.647 805.647 157.36 806 157.36ZM810.64 162.64H805.263C805.776 161.621 806.124 160.507 806.275 159.332C806.894 159.205 807.361 158.656 807.361 158C807.361 157.344 806.894 156.796 806.276 156.668C806.126 155.487 805.781 154.374 805.276 153.36H810.64V162.64Z" fill="#161616"/>
</g>
<path d="M388.5 158L383.5 155.113V160.887L388.5 158ZM316 158.5H384V157.5H316V158.5Z" fill="#525252"/>
<path d="M516.5 158L511.5 155.113V160.887L516.5 158ZM444 158.5H512V157.5H444V158.5Z" fill="#525252"/>
<path d="M644.5 158L639.5 155.113V160.887L644.5 158ZM572 158.5H640V157.5H572V158.5Z" fill="#525252"/>
<path d="M772.5 158L767.5 155.113V160.887L772.5 158ZM700 158.5H768V157.5H700V158.5Z" fill="#525252"/>
<rect x="260.5" y="62.5" width="411" height="47" stroke="#0F62FE"/>
<rect x="261" y="63" width="410" height="46" fill="white"/>
<rect x="261" y="63" width="410" height="46" fill="#EDF5FF"/>
<g clip-path="url(#clip1_1_9)">
<path d="M280.942 91.168C278.366 91.168 276.728 89.474 276.728 86.184C276.728 82.894 278.366 81.06 280.942 81.06C282.692 81.06 283.826 81.802 284.512 83.314L282.93 84.154C282.65 83.286 282.034 82.698 280.942 82.698C279.57 82.698 278.688 83.692 278.688 85.358V86.898C278.688 88.578 279.57 89.53 280.942 89.53C282.048 89.53 282.734 88.858 283.056 87.976L284.554 88.858C283.854 90.314 282.692 91.168 280.942 91.168ZM289.384 87.556L290.658 83.692H292.338L289.398 92.302C289.034 93.352 288.516 93.8 287.312 93.8H286.234V92.372H287.55L287.886 91.35L285.268 83.692H287.046L288.32 87.556L288.796 89.404H288.88L289.384 87.556ZM293.68 91V80.64H295.472V84.896H295.528C295.794 84.056 296.578 83.524 297.544 83.524C299.392 83.524 300.414 84.896 300.414 87.332C300.414 89.782 299.392 91.168 297.544 91.168C296.578 91.168 295.808 90.608 295.528 89.782H295.472V91H293.68ZM296.97 89.684C297.894 89.684 298.538 89.012 298.538 87.976V86.716C298.538 85.68 297.894 84.994 296.97 84.994C296.116 84.994 295.472 85.456 295.472 86.17V88.494C295.472 89.25 296.116 89.684 296.97 89.684ZM305.189 91.168C303.033 91.168 301.745 89.67 301.745 87.332C301.745 85.022 302.991 83.524 305.133 83.524C307.415 83.524 308.465 85.204 308.465 87.206V87.794H303.607V87.976C303.607 89.026 304.209 89.74 305.385 89.74C306.267 89.74 306.799 89.32 307.247 88.746L308.213 89.824C307.611 90.65 306.547 91.168 305.189 91.168ZM305.161 84.868C304.223 84.868 303.607 85.568 303.607 86.576V86.688H306.603V86.562C306.603 85.554 306.085 84.868 305.161 84.868ZM311.993 91H310.201V83.692H311.993V85.204H312.063C312.245 84.434 312.833 83.692 313.995 83.692H314.387V85.386H313.827C312.623 85.386 311.993 85.722 311.993 86.52V91ZM321.72 91.168C320.334 91.168 319.424 90.664 318.696 89.824L319.788 88.76C320.32 89.376 320.964 89.754 321.79 89.754C322.644 89.754 323.008 89.432 323.008 88.914C323.008 88.494 322.756 88.228 322.112 88.144L321.384 88.046C319.816 87.85 318.948 87.164 318.948 85.834C318.948 84.42 320.054 83.524 321.72 83.524C323.148 83.524 323.876 83.944 324.576 84.672L323.526 85.722C323.106 85.274 322.49 84.938 321.776 84.938C321.006 84.938 320.67 85.246 320.67 85.694C320.67 86.184 320.936 86.408 321.622 86.52L322.364 86.618C323.96 86.842 324.73 87.556 324.73 88.774C324.73 90.188 323.54 91.168 321.72 91.168ZM329.426 91.168C327.27 91.168 325.982 89.67 325.982 87.332C325.982 85.022 327.228 83.524 329.37 83.524C331.652 83.524 332.702 85.204 332.702 87.206V87.794H327.844V87.976C327.844 89.026 328.446 89.74 329.622 89.74C330.504 89.74 331.036 89.32 331.484 88.746L332.45 89.824C331.848 90.65 330.784 91.168 329.426 91.168ZM329.398 84.868C328.46 84.868 327.844 85.568 327.844 86.576V86.688H330.84V86.562C330.84 85.554 330.322 84.868 329.398 84.868ZM337.323 91.168C335.167 91.168 333.949 89.684 333.949 87.332C333.949 84.994 335.167 83.524 337.323 83.524C338.793 83.524 339.759 84.224 340.193 85.372L338.723 86.03C338.555 85.414 338.093 84.966 337.323 84.966C336.329 84.966 335.825 85.666 335.825 86.688V88.018C335.825 89.04 336.329 89.726 337.323 89.726C338.177 89.726 338.597 89.236 338.863 88.578L340.235 89.236C339.759 90.524 338.737 91.168 337.323 91.168ZM346.145 91V89.782H346.075C345.823 90.51 345.235 91.168 344.031 91.168C342.533 91.168 341.693 90.132 341.693 88.312V83.692H343.485V88.13C343.485 89.138 343.863 89.684 344.717 89.684C345.431 89.684 346.145 89.306 346.145 88.522V83.692H347.937V91H346.145ZM351.959 91H350.167V83.692H351.959V85.204H352.029C352.211 84.434 352.799 83.692 353.961 83.692H354.353V85.386H353.793C352.589 85.386 351.959 85.722 351.959 86.52V91ZM356.719 82.628C355.977 82.628 355.669 82.25 355.669 81.732V81.452C355.669 80.934 355.977 80.556 356.719 80.556C357.447 80.556 357.769 80.934 357.769 81.452V81.732C357.769 82.25 357.447 82.628 356.719 82.628ZM355.823 91V83.692H357.615V91H355.823ZM362.134 91C360.902 91 360.244 90.328 360.244 89.138V85.12H359.166V83.692H359.726C360.258 83.692 360.426 83.44 360.426 82.936V81.69H362.036V83.692H363.534V85.12H362.036V89.572H363.422V91H362.134ZM368.455 87.556L369.729 83.692H371.409L368.469 92.302C368.105 93.352 367.587 93.8 366.383 93.8H365.305V92.372H366.621L366.957 91.35L364.339 83.692H366.117L367.391 87.556L367.867 89.404H367.951L368.455 87.556Z" fill="black"/>
</g>
<rect x="671.5" y="62.5" width="156" height="47" stroke="#0F62FE"/>
<rect x="672" y="63" width="155" height="46" fill="white"/>
<rect x="672" y="63" width="155" height="46" fill="#EDF5FF"/>
<g clip-path="url(#clip2_1_9)">
<path d="M691.942 91.168C689.366 91.168 687.728 89.474 687.728 86.184C687.728 82.894 689.366 81.06 691.942 81.06C693.692 81.06 694.826 81.802 695.512 83.314L693.93 84.154C693.65 83.286 693.034 82.698 691.942 82.698C690.57 82.698 689.688 83.692 689.688 85.358V86.898C689.688 88.578 690.57 89.53 691.942 89.53C693.048 89.53 693.734 88.858 694.056 87.976L695.554 88.858C694.854 90.314 693.692 91.168 691.942 91.168ZM700.384 87.556L701.658 83.692H703.338L700.398 92.302C700.034 93.352 699.516 93.8 698.312 93.8H697.234V92.372H698.55L698.886 91.35L696.268 83.692H698.046L699.32 87.556L699.796 89.404H699.88L700.384 87.556ZM704.68 91V80.64H706.472V84.896H706.528C706.794 84.056 707.578 83.524 708.544 83.524C710.392 83.524 711.414 84.896 711.414 87.332C711.414 89.782 710.392 91.168 708.544 91.168C707.578 91.168 706.808 90.608 706.528 89.782H706.472V91H704.68ZM707.97 89.684C708.894 89.684 709.538 89.012 709.538 87.976V86.716C709.538 85.68 708.894 84.994 707.97 84.994C707.116 84.994 706.472 85.456 706.472 86.17V88.494C706.472 89.25 707.116 89.684 707.97 89.684ZM716.189 91.168C714.033 91.168 712.745 89.67 712.745 87.332C712.745 85.022 713.991 83.524 716.133 83.524C718.415 83.524 719.465 85.204 719.465 87.206V87.794H714.607V87.976C714.607 89.026 715.209 89.74 716.385 89.74C717.267 89.74 717.799 89.32 718.247 88.746L719.213 89.824C718.611 90.65 717.547 91.168 716.189 91.168ZM716.161 84.868C715.223 84.868 714.607 85.568 714.607 86.576V86.688H717.603V86.562C717.603 85.554 717.085 84.868 716.161 84.868ZM722.993 91H721.201V83.692H722.993V85.204H723.063C723.245 84.434 723.833 83.692 724.995 83.692H725.387V85.386H724.827C723.623 85.386 722.993 85.722 722.993 86.52V91ZM732.118 91H730.326V83.692H732.118V85.204H732.188C732.37 84.434 732.958 83.692 734.12 83.692H734.512V85.386H733.952C732.748 85.386 732.118 85.722 732.118 86.52V91ZM738.868 91.168C736.712 91.168 735.424 89.67 735.424 87.332C735.424 85.022 736.67 83.524 738.812 83.524C741.094 83.524 742.144 85.204 742.144 87.206V87.794H737.286V87.976C737.286 89.026 737.888 89.74 739.064 89.74C739.946 89.74 740.478 89.32 740.926 88.746L741.892 89.824C741.29 90.65 740.226 91.168 738.868 91.168ZM738.84 84.868C737.902 84.868 737.286 85.568 737.286 86.576V86.688H740.282V86.562C740.282 85.554 739.764 84.868 738.84 84.868ZM746.274 91.168C744.888 91.168 743.978 90.664 743.25 89.824L744.342 88.76C744.874 89.376 745.518 89.754 746.344 89.754C747.198 89.754 747.562 89.432 747.562 88.914C747.562 88.494 747.31 88.228 746.666 88.144L745.938 88.046C744.37 87.85 743.502 87.164 743.502 85.834C743.502 84.42 744.608 83.524 746.274 83.524C747.702 83.524 748.43 83.944 749.13 84.672L748.08 85.722C747.66 85.274 747.044 84.938 746.33 84.938C745.56 84.938 745.224 85.246 745.224 85.694C745.224 86.184 745.49 86.408 746.176 86.52L746.918 86.618C748.514 86.842 749.284 87.556 749.284 88.774C749.284 90.188 748.094 91.168 746.274 91.168ZM751.923 82.628C751.181 82.628 750.873 82.25 750.873 81.732V81.452C750.873 80.934 751.181 80.556 751.923 80.556C752.651 80.556 752.973 80.934 752.973 81.452V81.732C752.973 82.25 752.651 82.628 751.923 82.628ZM751.027 91V83.692H752.819V91H751.027ZM757.814 91H756.848C755.63 91 755.056 90.356 755.056 89.236V80.64H756.848V89.572H757.814V91ZM760.227 82.628C759.485 82.628 759.177 82.25 759.177 81.732V81.452C759.177 80.934 759.485 80.556 760.227 80.556C760.955 80.556 761.277 80.934 761.277 81.452V81.732C761.277 82.25 760.955 82.628 760.227 82.628ZM759.331 91V83.692H761.123V91H759.331ZM766.314 91.168C764.158 91.168 762.87 89.67 762.87 87.332C762.87 85.022 764.116 83.524 766.258 83.524C768.54 83.524 769.59 85.204 769.59 87.206V87.794H764.732V87.976C764.732 89.026 765.334 89.74 766.51 89.74C767.392 89.74 767.924 89.32 768.372 88.746L769.338 89.824C768.736 90.65 767.672 91.168 766.314 91.168ZM766.286 84.868C765.348 84.868 764.732 85.568 764.732 86.576V86.688H767.728V86.562C767.728 85.554 767.21 84.868 766.286 84.868ZM773.119 91H771.327V83.692H773.119V84.91H773.189C773.483 84.126 774.099 83.524 775.233 83.524C776.731 83.524 777.571 84.56 777.571 86.38V91H775.779V86.562C775.779 85.526 775.429 84.994 774.575 84.994C773.833 84.994 773.119 85.386 773.119 86.17V91ZM782.601 91.168C780.445 91.168 779.227 89.684 779.227 87.332C779.227 84.994 780.445 83.524 782.601 83.524C784.071 83.524 785.037 84.224 785.471 85.372L784.001 86.03C783.833 85.414 783.371 84.966 782.601 84.966C781.607 84.966 781.103 85.666 781.103 86.688V88.018C781.103 89.04 781.607 89.726 782.601 89.726C783.455 89.726 783.875 89.236 784.141 88.578L785.513 89.236C785.037 90.524 784.015 91.168 782.601 91.168ZM789.941 91.168C787.785 91.168 786.497 89.67 786.497 87.332C786.497 85.022 787.743 83.524 789.885 83.524C792.167 83.524 793.217 85.204 793.217 87.206V87.794H788.359V87.976C788.359 89.026 788.961 89.74 790.137 89.74C791.019 89.74 791.551 89.32 791.999 88.746L792.965 89.824C792.363 90.65 791.299 91.168 789.941 91.168ZM789.913 84.868C788.975 84.868 788.359 85.568 788.359 86.576V86.688H791.355V86.562C791.355 85.554 790.837 84.868 789.913 84.868Z" fill="black"/>
</g>
<defs>
<clipPath id="clip0_1_9">
<rect width="32" height="32" fill="white" transform="translate(780 142)"/>
</clipPath>
<clipPath id="clip1_1_9">
<rect width="412" height="48" fill="white" transform="translate(260 62)"/>
</clipPath>
<clipPath id="clip2_1_9">
<rect width="157" height="48" fill="white" transform="translate(671 62)"/>
</clipPath>
</defs>
</svg>
