<?xml version="1.0" encoding="UTF-8"?>
<svg xmlns="http://www.w3.org/2000/svg" xmlns:xlink="http://www.w3.org/1999/xlink" version="1.1" viewBox="0 0 603.1 276">
  <defs>
    <style>
      .cls-1, .cls-2, .cls-3, .cls-4, .cls-5, .cls-6, .cls-7, .cls-8, .cls-9 {
        fill: none;
      }

      .cls-10, .cls-11 {
        fill: #001d6c;
      }

      .cls-12 {
        fill: url(#linear-gradient-2);
      }

      .cls-2 {
        stroke: #001d6c;
        stroke-width: 2px;
      }

      .cls-2, .cls-3, .cls-4, .cls-5, .cls-6, .cls-7, .cls-8, .cls-9 {
        stroke-miterlimit: 10;
      }

      .cls-13 {
        fill: url(#linear-gradient);
      }

      .cls-3 {
        stroke: url(#linear-gradient-2);
        stroke-width: 17px;
      }

      .cls-11 {
        font-family: IBMPlexSansJP-83pv-RKSJ-H, 'IBM Plex Sans JP';
        font-size: 12px;
      }

      .cls-4 {
        stroke: url(#linear-gradient-8);
      }

      .cls-4, .cls-5, .cls-6, .cls-7, .cls-8, .cls-9 {
        opacity: .2;
      }

      .cls-5 {
        stroke: url(#linear-gradient-4);
      }

      .cls-6 {
        stroke: url(#linear-gradient-3);
      }

      .cls-7 {
        stroke: url(#linear-gradient-7);
      }

      .cls-8 {
        stroke: url(#linear-gradient-5);
      }

      .cls-9 {
        stroke: url(#linear-gradient-6);
      }

      .cls-14 {
        opacity: .5;
      }
    </style>
    <linearGradient id="linear-gradient" x1="6" y1="225.8" x2="603.1" y2="225.8" gradientUnits="userSpaceOnUse">
      <stop offset="0" stop-color="#fff"/>
      <stop offset=".1" stop-color="#a6c8ff"/>
      <stop offset="1" stop-color="#001d6c"/>
    </linearGradient>
    <linearGradient id="linear-gradient-2" x1="6" y1="225.8" x2="603.1" y2="225.8" gradientUnits="userSpaceOnUse">
      <stop offset="0" stop-color="#fff"/>
      <stop offset=".2" stop-color="#a6c8ff"/>
      <stop offset="1" stop-color="#001d6c"/>
    </linearGradient>
    <linearGradient id="linear-gradient-3" x1="6.3" y1="129.9" x2="7.3" y2="129.9" gradientUnits="userSpaceOnUse">
      <stop offset="0" stop-color="#fff"/>
      <stop offset="0" stop-color="#a6c8ff"/>
      <stop offset="1" stop-color="#001d6c"/>
    </linearGradient>
    <linearGradient id="linear-gradient-4" x1="119.3" x2="120.3" xlink:href="#linear-gradient-3"/>
    <linearGradient id="linear-gradient-5" x1="232.2" x2="233.2" xlink:href="#linear-gradient-3"/>
    <linearGradient id="linear-gradient-6" x1="345.2" y1="129.9" x2="346.2" y2="129.9" xlink:href="#linear-gradient-3"/>
    <linearGradient id="linear-gradient-7" x1="458.1" y1="129.9" x2="459.1" y2="129.9" xlink:href="#linear-gradient-3"/>
    <linearGradient id="linear-gradient-8" x1="571.1" x2="572.1" xlink:href="#linear-gradient-3"/>
  </defs>
  <!-- Generator: Adobe Illustrator 28.7.1, SVG Export Plug-In . SVG Version: 1.2.0 Build 142)  -->
  <g>
    <g id="Layer_1">
      <path class="cls-1" d=""/>
      <path class="cls-1" d=""/>
      <g>
        <line class="cls-13" x1="6" y1="225.8" x2="603.1" y2="225.8"/>
        <g>
          <line class="cls-3" x1="6" y1="225.8" x2="578.7" y2="225.8"/>
          <polygon class="cls-12" points="573.7 242.8 603.1 225.8 573.7 208.9 573.7 242.8"/>
        </g>
      </g>
      <text class="cls-11" transform="translate(6 229.8)"><tspan x="0" y="0">Time elapsed</tspan></text>
      <line class="cls-6" x1="6.8" y1="42.2" x2="6.8" y2="217.7"/>
      <line class="cls-5" x1="119.8" y1="42.2" x2="119.8" y2="217.7"/>
      <line class="cls-8" x1="232.7" y1="42.2" x2="232.7" y2="217.7"/>
      <line class="cls-9" x1="345.7" y1="42.2" x2="345.7" y2="217.7"/>
      <line class="cls-7" x1="458.6" y1="42.2" x2="458.6" y2="217.7"/>
      <text class="cls-11" transform="translate(6.8 37.8)"><tspan x="0" y="0">Last backup (RPO)</tspan></text>
      <text class="cls-11" transform="translate(232.7 37.8)"><tspan x="0" y="0">DR initiated</tspan></text>
      <text class="cls-11" transform="translate(476 37.8)"><tspan x="0" y="0">Workloads recovered</tspan></text>
      <g>
        <line class="cls-2" x1="19.1" y1="68.3" x2="334.2" y2="68.3"/>
        <polygon class="cls-10" points="21.5 76.3 7.6 68.3 21.5 60.3 21.5 76.3"/>
        <polygon class="cls-10" points="331.9 76.3 345.7 68.3 331.9 60.3 331.9 76.3"/>
      </g>
      <g>
        <line class="cls-2" x1="132.1" y1="116.7" x2="560.9" y2="116.7"/>
        <polygon class="cls-10" points="134.4 124.7 120.6 116.7 134.4 108.7 134.4 124.7"/>
        <polygon class="cls-10" points="558.5 124.7 572.4 116.7 558.5 108.7 558.5 124.7"/>
      </g>
      <line class="cls-4" x1="571.6" y1="42.2" x2="571.6" y2="217.7"/>
      <text class="cls-11" transform="translate(30.8 59.9)"><tspan x="0" y="0">Potential data loss</tspan></text>
      <text class="cls-11" transform="translate(144.3 110.8)"><tspan x="0" y="0">Outage</tspan></text>
      <g>
        <line class="cls-2" x1="232.7" y1="171.3" x2="334.2" y2="171.3"/>
        <polygon class="cls-10" points="331.9 179.2 345.7 171.3 331.9 163.3 331.9 179.2"/>
      </g>
      <text class="cls-11" transform="translate(240.7 185)"><tspan x="0" y="0">Recover </tspan><tspan x="0" y="14.4">services</tspan></text>
      <g>
        <line class="cls-2" x1="346.5" y1="171.3" x2="447.9" y2="171.3"/>
        <polygon class="cls-10" points="445.6 179.2 459.4 171.3 445.6 163.3 445.6 179.2"/>
      </g>
      <text class="cls-11" transform="translate(354.4 185)"><tspan x="0" y="0">Restore</tspan><tspan x="0" y="14.4">backups</tspan></text>
      <g>
        <line class="cls-2" x1="459.4" y1="171.3" x2="560.9" y2="171.3"/>
        <polygon class="cls-10" points="558.5 179.2 572.4 171.3 558.5 163.3 558.5 179.2"/>
      </g>
      <text class="cls-11" transform="translate(467.3 185)"><tspan x="0" y="0">Test</tspan><tspan x="0" y="14.4">workloads</tspan></text>
      <g class="cls-14">
        <g>
          <line class="cls-2" x1="233" y1="164.5" x2="559.8" y2="164.5"/>
          <polygon class="cls-10" points="557.5 172.4 571.3 164.5 557.5 156.5 557.5 172.4"/>
        </g>
      </g>
      <text class="cls-11" transform="translate(237 157.7)"><tspan x="0" y="0">(RTO)</tspan></text>
    </g>
  </g>
</svg>