<svg width="486" height="385" viewBox="0 0 486 385" fill="none" xmlns="http://www.w3.org/2000/svg">
<g clip-path="url(#clip0_1_12816)">
<rect width="486" height="385" fill="#F4F4F4"/>
<rect width="5" height="4" transform="matrix(0 -1 1 0 70.8496 25)" fill="white" fill-opacity="0.01" style="mix-blend-mode:multiply"/>
<path d="M70.8496 25L74.8496 17L78.8496 25H70.8496Z" fill="black"/>
<rect width="5" height="5" transform="translate(376 341)" fill="white" fill-opacity="0.01" style="mix-blend-mode:multiply"/>
<path d="M376 341L384 345L376 349V341Z" fill="black"/>
<path d="M82.1116 29.5818C82.1116 29.5818 62.6785 330.063 367.093 335.517" stroke="#B85450" stroke-width="2"/>
<path d="M180.996 364.234V368H179.148V358.228H183.558C185.336 358.228 186.442 359.404 186.442 361.252C186.442 362.596 185.826 363.618 184.622 364.024L186.624 368H184.566L182.746 364.234H180.996ZM180.996 362.68H183.376C184.09 362.68 184.524 362.288 184.524 361.574V360.93C184.524 360.216 184.09 359.838 183.376 359.838H180.996V362.68ZM190.453 368H188.605V358.228H193.001C194.807 358.228 195.899 359.446 195.899 361.252C195.899 363.072 194.807 364.276 193.001 364.276H190.453V368ZM190.453 359.838V362.68H192.833C193.547 362.68 193.981 362.288 193.981 361.574V360.93C193.981 360.216 193.547 359.838 192.833 359.838H190.453ZM201.57 368.168C199.008 368.168 197.314 366.418 197.314 363.114C197.314 359.81 199.008 358.06 201.57 358.06C204.146 358.06 205.826 359.81 205.826 363.114C205.826 366.418 204.146 368.168 201.57 368.168ZM201.57 366.53C202.97 366.53 203.866 365.536 203.866 363.87V362.358C203.866 360.692 202.97 359.698 201.57 359.698C200.17 359.698 199.274 360.692 199.274 362.358V363.87C199.274 365.536 200.17 366.53 201.57 366.53ZM213.023 368.168C211.539 368.168 210.699 367.314 210.699 366.012C210.699 364.514 211.833 363.772 213.821 363.772H215.067V363.24C215.067 362.428 214.661 361.952 213.709 361.952C212.869 361.952 212.393 362.372 212.043 362.876L210.979 361.924C211.511 361.084 212.365 360.524 213.835 360.524C215.809 360.524 216.859 361.462 216.859 363.128V366.572H217.587V368H216.593C215.823 368 215.347 367.496 215.235 366.74H215.151C214.913 367.678 214.115 368.168 213.023 368.168ZM213.625 366.866C214.423 366.866 215.067 366.502 215.067 365.816V364.85H213.919C212.981 364.85 212.519 365.172 212.519 365.746V365.984C212.519 366.572 212.925 366.866 213.625 366.866ZM220.989 368H219.197V360.692H220.989V361.91H221.059C221.353 361.126 221.969 360.524 223.103 360.524C224.601 360.524 225.441 361.56 225.441 363.38V368H223.649V363.562C223.649 362.526 223.299 361.994 222.445 361.994C221.703 361.994 220.989 362.386 220.989 363.17V368ZM232.124 368V366.782H232.054C231.788 367.608 231.004 368.168 230.038 368.168C228.204 368.168 227.182 366.782 227.182 364.332C227.182 361.896 228.204 360.524 230.038 360.524C231.004 360.524 231.802 361.056 232.054 361.896H232.124V357.64H233.916V368H232.124ZM230.612 366.684C231.466 366.684 232.124 366.25 232.124 365.494V363.17C232.124 362.456 231.466 361.994 230.612 361.994C229.688 361.994 229.058 362.68 229.058 363.716V364.976C229.058 366.012 229.688 366.684 230.612 366.684ZM241.571 364.234V368H239.723V358.228H244.133C245.911 358.228 247.017 359.404 247.017 361.252C247.017 362.596 246.401 363.618 245.197 364.024L247.199 368H245.141L243.321 364.234H241.571ZM241.571 362.68H243.951C244.665 362.68 245.099 362.288 245.099 361.574V360.93C245.099 360.216 244.665 359.838 243.951 359.838H241.571V362.68ZM255.446 359.866H252.674V368H250.826V359.866H248.054V358.228H255.446V359.866ZM260.613 368.168C258.051 368.168 256.357 366.418 256.357 363.114C256.357 359.81 258.051 358.06 260.613 358.06C263.189 358.06 264.869 359.81 264.869 363.114C264.869 366.418 263.189 368.168 260.613 368.168ZM260.613 366.53C262.013 366.53 262.909 365.536 262.909 363.87V362.358C262.909 360.692 262.013 359.698 260.613 359.698C259.213 359.698 258.317 360.692 258.317 362.358V363.87C258.317 365.536 259.213 366.53 260.613 366.53Z" fill="black"/>
<path d="M36.942 199.168C34.366 199.168 32.728 197.474 32.728 194.184C32.728 190.894 34.366 189.06 36.942 189.06C38.692 189.06 39.826 189.802 40.512 191.314L38.93 192.154C38.65 191.286 38.034 190.698 36.942 190.698C35.57 190.698 34.688 191.692 34.688 193.358V194.898C34.688 196.578 35.57 197.53 36.942 197.53C38.048 197.53 38.734 196.858 39.056 195.976L40.554 196.858C39.854 198.314 38.692 199.168 36.942 199.168ZM45.0764 199.168C42.9904 199.168 41.6884 197.684 41.6884 195.332C41.6884 192.994 42.9904 191.524 45.0764 191.524C47.1764 191.524 48.4784 192.994 48.4784 195.332C48.4784 197.684 47.1764 199.168 45.0764 199.168ZM45.0764 197.726C46.0144 197.726 46.6024 197.124 46.6024 196.018V194.66C46.6024 193.568 46.0144 192.966 45.0764 192.966C44.1524 192.966 43.5644 193.568 43.5644 194.66V196.018C43.5644 197.124 44.1524 197.726 45.0764 197.726ZM52.6211 199.168C51.2351 199.168 50.3251 198.664 49.5971 197.824L50.6891 196.76C51.2211 197.376 51.8651 197.754 52.6911 197.754C53.5451 197.754 53.9091 197.432 53.9091 196.914C53.9091 196.494 53.6571 196.228 53.0131 196.144L52.2851 196.046C50.7171 195.85 49.8491 195.164 49.8491 193.834C49.8491 192.42 50.9551 191.524 52.6211 191.524C54.0491 191.524 54.7771 191.944 55.4771 192.672L54.4271 193.722C54.0071 193.274 53.3911 192.938 52.6771 192.938C51.9071 192.938 51.5711 193.246 51.5711 193.694C51.5711 194.184 51.8371 194.408 52.5231 194.52L53.2651 194.618C54.8611 194.842 55.6311 195.556 55.6311 196.774C55.6311 198.188 54.4411 199.168 52.6211 199.168ZM59.546 199C58.314 199 57.656 198.328 57.656 197.138V193.12H56.578V191.692H57.138C57.67 191.692 57.838 191.44 57.838 190.936V189.69H59.448V191.692H60.946V193.12H59.448V197.572H60.834V199H59.546Z" fill="black"/>
<rect width="319" height="301" transform="matrix(0 -1 1 0 75 344)" fill="white" fill-opacity="0.01" style="mix-blend-mode:multiply"/>
<path d="M75 25L75 344L376 344" stroke="black" stroke-width="2"/>
</g>
<defs>
<clipPath id="clip0_1_12816">
<rect width="486" height="385" fill="white"/>
</clipPath>
</defs>
</svg>
